<?xml version="1.0" encoding="UTF-8"?>
<svg id="Calque_2" data-name="Calque 2" xmlns="http://www.w3.org/2000/svg" viewBox="0 0 977.15 317">
  <defs>
    <style>
      .cls-1 {
        fill: #272a33;
      }

      .cls-2 {
        fill: #454b59;
      }
    </style>
  </defs>
  <g id="Logo_-_Noir" data-name="Logo - Noir">
    <g>
      <g>
        <path class="cls-1" d="M396.87,115.06c-.59-6.51-3.21-11.58-7.86-15.22-4.65-3.64-11.26-5.46-19.84-5.46-5.68,0-10.42.74-14.2,2.22-3.79,1.48-6.63,3.51-8.52,6.08-1.89,2.57-2.87,5.52-2.93,8.83-.12,2.72.43,5.12,1.64,7.19,1.21,2.07,2.99,3.89,5.33,5.46,2.34,1.57,5.16,2.94,8.48,4.13,3.31,1.18,7.04,2.22,11.19,3.11l15.62,3.55c8.99,1.95,16.94,4.56,23.83,7.81,6.89,3.26,12.69,7.13,17.4,11.63,4.7,4.5,8.27,9.68,10.7,15.53,2.43,5.86,3.67,12.43,3.73,19.71-.06,11.48-2.96,21.34-8.7,29.56-5.74,8.23-13.98,14.53-24.72,18.91-10.74,4.38-23.69,6.57-38.84,6.57s-28.47-2.28-39.77-6.84c-11.3-4.56-20.09-11.48-26.36-20.77-6.27-9.29-9.5-21.04-9.68-35.24h42.08c.35,5.86,1.92,10.74,4.7,14.65s6.61,6.87,11.5,8.88c4.88,2.01,10.55,3.02,17,3.02,5.92,0,10.96-.8,15.14-2.4s7.38-3.82,9.63-6.66c2.25-2.84,3.4-6.09,3.46-9.76-.06-3.43-1.12-6.38-3.2-8.83s-5.25-4.59-9.54-6.39c-4.29-1.8-9.75-3.48-16.38-5.02l-19-4.44c-15.74-3.61-28.14-9.45-37.19-17.53-9.06-8.08-13.55-19.01-13.49-32.8-.06-11.24,2.96-21.1,9.05-29.56,6.09-8.46,14.53-15.06,25.3-19.8,10.77-4.73,23.05-7.1,36.84-7.1s26.32,2.38,36.71,7.15c10.39,4.76,18.45,11.44,24.19,20.02,5.74,8.58,8.67,18.52,8.79,29.83h-42.08Z"/>
        <path class="cls-1" d="M470.25,296.24l26.19-58-49.44-117.23h41.6l28.14,75.87,27.9-75.87h40.14l-74.4,175.23h-40.14Z"/>
        <path class="cls-1" d="M594.21,242.4v-121.39h37.69v14.68c4.41-6.2,9.63-10.68,15.66-13.46,6.03-2.77,12.81-4.16,20.31-4.16,15.17,0,26.68,4.86,34.51,14.56,7.83,9.71,11.75,22.31,11.75,37.81v71.95h-37.44v-67.3c0-7.67-1.88-13.83-5.63-18.48-3.75-4.65-9.38-6.98-16.89-6.98s-12.89,2.41-16.64,7.22c-3.76,4.81-5.63,10.89-5.63,18.23v67.3h-37.69Z"/>
        <g>
          <path class="cls-1" d="M919.93,240.45h-29.85l-18.66-41.33h-.1l-43.24-95.3-43.24,95.3h-.1l-18.66,41.33h-29.85l91.85-197.48,91.85,197.48Z"/>
          <path class="cls-1" d="M923.77,242.9h-35.27l-18.66-41.33h-.1l-41.67-91.82-41.67,91.82h-.09l-18.66,41.33h-35.27l95.69-205.73,95.69,205.73ZM891.66,238h24.44l-88.02-189.23-88.01,189.23h24.43l18.66-41.33h.1l44.82-98.77,44.82,98.77h.1l18.66,41.33Z"/>
        </g>
        <g>
          <path class="cls-1" d="M945.78,240.45l-96.05-197.48h27.56l96.05,197.48h-27.56Z"/>
          <path class="cls-1" d="M977.15,242.9h-32.94l-98.3-202.38h32.94l98.3,202.38ZM947.35,238h22.17l-93.8-192.59h-22.17l93.8,192.59Z"/>
        </g>
      </g>
      <polygon class="cls-2" points="225.82 181.79 19.71 199.27 19.71 134.94 225.82 117.46 225.82 181.79"/>
      <polygon class="cls-1" points="19.71 199.27 19.71 134.94 245.08 0 244.85 67.5 19.71 199.27"/>
      <polygon class="cls-1" points="225.82 117.46 225.82 181.79 0 317 .68 249.23 225.82 117.46"/>
    </g>
  </g>
</svg>